<?xml version="1.0" encoding="UTF-8"?><svg id="Ebene_1" xmlns="http://www.w3.org/2000/svg" viewBox="0 0 1267.41 417.49"><defs><style>.cls-1{fill:#2a363b;}</style></defs><path class="cls-1" d="M147.41,.6C110.71,4.8,76.91,20.5,50.51,45.7,22.91,72.1,5.91,105.2,.91,142.3c-1.8,12.8-.8,38.8,1.9,51.5,6.6,30.8,21.7,58.4,44.6,81.3,23,23.1,51.7,38.7,84,45.6,12.6,2.7,40.9,3.7,55.2,2,35.7-4.4,64.1-18,88.3-42.3,5.3-5.3,12-13.1,14.9-17.2,14.5-21.1,23.3-47.9,24.9-76.1,.7-11.8,0-34-1.2-37-.5-1.3-9.6-1.5-75.1-1.5h-74.5v44h106l-.6,3.2c-4.2,24.1-12.3,40.9-26.3,54.1-20.9,19.7-47.5,29.7-78.9,29.7-57.6,0-105.3-41-114.8-98.5-2.3-14-1.5-34.5,1.9-47.6,11.4-44,41.1-74.2,84.9-86.1,7.4-2,10.6-2.3,28.3-2.2,18.4,0,20.8,.2,29.7,2.6,16.2,4.4,33.3,13.4,45.2,23.9l4.8,4.2,15.4-15.4c8.5-8.4,15.4-15.6,15.4-16,0-.3-3.5-3.5-7.7-7.1C245.01,18.7,220.61,7.1,193.91,2.5c-13.4-2.3-35.1-3.2-46.5-1.9Z"/><path class="cls-1" d="M1011.91,164.6v153h45V11.6h-45V164.6Z"/><path class="cls-1" d="M418.21,117.1c-20.1,3.6-38.5,12.9-53.2,27-28.9,27.7-39.1,69.7-26.4,109,10.8,33.4,37.3,58.1,72.5,67.7,7.2,2,10.7,2.2,26.8,2.3,22.4,0,30.9-1.9,48.5-10.7,45.3-22.7,67-76.4,50.8-126.3-11.6-36-42.2-62.4-80.2-69-10.1-1.8-29-1.8-38.8,0Zm33.2,41c20.7,5.3,37.2,22,43.1,43.6,2.4,8.8,2.4,27.1,0,35.9-4.5,16.7-17.3,32.5-31.6,39.3-22.9,10.8-47.3,6.6-65.1-11.2-13-13-18.3-26.3-18.3-46.1,0-7.9,.6-13.5,1.8-17.9,5.8-21.4,22.3-38.2,42.6-43.5,7.3-1.9,20.1-2,27.5-.1Z"/><path class="cls-1" d="M641.91,117.6c-21.1,4.5-36.6,12.6-51.4,26.9-9.8,9.5-15.4,17.3-21.1,29.2-8.5,18-11.8,37.3-9.7,56.7,1.6,14.2,4.2,23.5,10.2,35.7,13.3,27.5,37,46.7,67.5,54.7,10.2,2.7,32.3,3.6,43.3,1.8,47.6-7.6,82.3-44.3,87.1-92.3,5.6-55.3-30.7-103.8-84.8-113.2-11.5-2-30.5-1.8-41.1,.5Zm41.2,42.2c17.5,6.5,30.3,20.3,36.5,39.3,3.3,10.1,3.7,27.2,1,37.5-6,22.5-22.3,39.2-43.6,44.6-8.7,2.2-23.4,1.5-31.5-1.4-26.5-9.6-42.3-35.5-40.2-65.5,1.9-27.6,19.6-49.7,45.1-56.4,7.9-2,24.5-1.1,32.7,1.9Z"/><path class="cls-1" d="M867.01,117.1c-18.8,4.1-34.8,12.6-49.2,26.2-12.8,12.1-21.5,25.9-27.3,43.3-12.9,38.9-2.6,80.6,27,109,19.1,18.3,38.6,26.8,63.9,27.7,10.9,.4,14.4,.2,21.8-1.6,11.9-2.8,22.7-8.3,30.3-15.3,3.4-3.2,6.7-5.8,7.4-5.8,1.7,0,.5,24.7-1.7,34.5-5.4,24.6-22.8,39.2-48.8,41.1-15.1,1.1-29.7-3.8-40.9-13.8-5.5-4.8-15.6-18.9-15.6-21.6,0-.9-.7-1.1-2.1-.7-3.3,1.1-37.1,15.3-37.7,15.9-1.8,1.9,10,20.6,19.3,30.5,17.8,18.8,40.2,29.2,66.6,30.8,26.4,1.5,51.6-5.8,70-20.5,18.1-14.3,30.3-38.7,33.8-67.7,.7-6,1.1-42.3,1.1-108.3V121.6h-43v8.5c0,4.7-.4,8.5-.8,8.5s-3.2-2.3-6.2-5.1c-6.7-6.2-22.5-14.1-32.7-16.3-8.8-2-26.4-2-35.2-.1Zm34.8,41c9.6,2.5,16.2,6.5,24.2,14.4,12.7,12.6,18.2,26.9,18.3,47.1,0,13.6-1.6,20.8-7.4,32.7-18.7,38.2-70.3,40.9-94.6,5.1-21.8-32-10.9-78.5,22.1-94.8,4.4-2.2,9.8-4.3,12-4.9,6.2-1.4,19.4-1.2,25.4,.4Z"/><path class="cls-1" d="M1155.01,117.1c-20.5,4.6-39.3,15.1-51.8,28.9-11.3,12.5-20.5,30.5-24.5,48-2.8,11.8-3,37.3-.5,48.2,9,39.4,35.6,67.6,73.3,78.1,9.1,2.5,11.4,2.8,27.9,2.8s19.1-.3,26.5-2.3c21.5-5.9,39.6-17.4,53.7-34.2,3.5-4.1,6.3-8,6.3-8.5,0-1-32.2-22.8-34.4-23.2-.6-.2-2.4,1.6-4.1,3.8-4.7,6.4-13.9,14.3-20.8,17.7-8.7,4.4-16.6,6.2-27.2,6.2-16.3,0-28.1-4.6-38.5-15-6-6-12.1-15.2-10.9-16.4,.3-.3,31.1-13.2,68.4-28.6,37.4-15.5,68.4-28.5,68.9-29s-.9-5.4-3.4-11.5c-13.5-33.6-36.9-56.2-66-64-9-2.4-34.2-3-42.9-1Zm30.9,39.5c10.9,2.1,22.5,9.7,27.3,17.9q1.8,3.1-.5,4c-1.3,.5-21.8,9.1-45.7,19-23.9,10-43.8,18.1-44.3,18.1-1.4,0-.9-10.8,.8-17.3,7.3-28.2,35.3-46.8,62.4-41.7Z"/></svg>