<?xml version="1.0" encoding="UTF-8"?><svg id="Ebene_1" xmlns="http://www.w3.org/2000/svg" viewBox="0 0 798.32 160.54"><defs><style>.cls-1{fill:#2a363b;}</style></defs><path class="cls-1" d="M57.42,1.42C31.02,8.52,8.72,40.12,1.82,80.32c-2.1,12.3-2.5,34.7-.6,43,1.9,8.8,7.4,19.7,12.9,25.3,8.7,8.9,21.9,13,36,11.1,18.7-2.6,31.6-16.4,56.8-60.9,7.1-12.6,13.2-22.9,13.5-22.9,.3-.1,7.3,11,15.5,24.6,27.7,46.2,37.9,56.6,58.1,59.4,22.4,3.1,38.2-8.5,45-33.1,2.7-9.7,2.4-37.8-.5-51.6C229.62,33.12,207.52,5.32,179.32,.72c-16.3-2.6-34.3,6.9-50,26.6l-5,6.3-11.8-11.7c-9-9-13.3-12.6-18.9-15.5C81.62,.22,68.52-1.58,57.42,1.42Zm125.6,21.4c11.8,5.2,22.4,19.3,28.9,38.4,6.2,18.1,8.6,46.5,5,58.8-4.8,16.5-20.2,19.8-31.8,7-4.9-5.5-15.1-20.8-29.3-44.2-6.5-10.7-13.8-22.5-16.1-26.2l-4.3-6.7,3.6-5.3c15.1-22,28.5-28.6,44-21.8Zm-102.1,5.9c5.5,2.5,15.8,12.2,22.6,21.3l5,6.8-15.3,23.7c-30.5,47.6-36.6,54.3-49,54.3-6.9,0-12-3.7-15.5-11.2-2.8-6.1-2.9-6.8-2.8-20.8,0-10.9,.6-16.7,2.1-23.6,6.5-27.8,20.6-48.5,35.8-52.5,4.4-1.2,11.9-.3,17.1,2Z"/><path class="cls-1" d="M292.32,81.32v76.5h25l.2-58.2,.3-58.2,22.3,40.2,22.4,40.3,11.6-.3,11.6-.3,22.1-39.7c12.1-21.9,22.3-39.7,22.8-39.8,.4,0,.7,26.1,.7,58v58h24V4.82h-14.7l-14.8,.1-25.5,46.3c-14,25.5-25.8,46.2-26.1,46-.4-.2-12.1-21.1-26-46.4l-25.4-46h-30.5V81.32Z"/><path class="cls-1" d="M616.32,27.32v16.5h-23v19.9l11.3,.3,11.2,.3,.5,34.5c.5,33.4,.6,34.7,2.9,40.4,4,10.1,11.6,16.8,22,19.6,5.5,1.5,20.5,1.5,27.6,0l5.5-1.1v-19.5l-11.2,.4c-13.9,.4-17-.8-20.8-8.4-2.5-4.9-2.5-5.1-2.8-35.7l-.3-30.7h35.1v-20h-35V10.82h-23V27.32Z"/><path class="cls-1" d="M525.32,41.82c-17.9,2.2-33.2,13.1-41,29.5-4.5,9.5-5.8,14.5-6.6,25.6-2.1,30,15.3,55.3,42.6,62,7.6,1.9,24.9,1.6,33-.5,11.2-2.9,29-12.6,29-15.8,0-.5-2.7-4.3-6.1-8.3l-6-7.4-5.2,4c-8.7,6.6-14.4,8.3-27.7,8.3-10.3,.1-12-.2-16.5-2.4-9.1-4.5-16.7-14.4-18.2-23.7l-.6-3.3h83.3v-8.9c0-24.3-10.6-45-27.5-53.7-9.3-4.9-20.7-6.8-32.5-5.4Zm17.1,21.6c4.1,1.2,6.6,2.8,10.5,6.8,5,5.1,7.2,9.6,8.9,18.3l.7,3.3h-30.1c-34.5,0-31.9,.9-27.9-9.7,2.9-7.8,11.5-16.5,18.4-18.7,6.5-1.9,12.8-2,19.5,0Z"/><path class="cls-1" d="M731.32,41.92c-20.8,2.3-37.7,18.2-43.7,40.9-2.3,8.8-2.3,27.2,0,36,6.3,24.2,22.9,39.4,45.4,41.5,13.4,1.3,27-3.3,36.2-12.2,3-2.9,5.6-5.3,5.8-5.3s.3,3.4,.3,7.5v7.5h23V43.82h-23v14.2l-5.2-4.8c-6.2-5.5-15.3-10.1-21.7-10.9-8.8-1.1-10.6-1.1-17.1-.4Zm23.2,22.7c6.8,2.5,12.9,7.2,16.6,12.7l3.2,4.8v37.4l-3.1,4.7c-6,9-14.8,13.7-26.5,14.4-11.5,.6-17.2-1.4-24.5-8.8-7.3-7.3-10-15-10.1-28.7,0-19,7.5-31.6,21.7-36.5,6.4-2.2,16.6-2.2,22.7,0Z"/></svg>