<?xml version="1.0" encoding="UTF-8"?><svg id="Ebene_1" xmlns="http://www.w3.org/2000/svg" viewBox="0 0 2531.72 463.26"><defs><style>.cls-1{fill:#2a363b;}</style></defs><path class="cls-1" d="M1170.04,4.34c-17.7,4.7-20.8,6.1-21.9,10.3-.5,1.5-.8,85-.8,185.7v183l2.2,8.5c6.9,26.1,23.1,39.8,50.8,43.1,20.4,2.4,43-3.4,45.1-11.5,.3-1.3-.7-8.4-2.2-15.7-3.8-18-3.9-18.1-18-19-6-.3-12-1.1-13.4-1.7-3.2-1.3-6.6-4.9-7.9-8.5-.8-2-1.1-58.6-1.1-185.8,0-197.4,.3-187.5-5.1-191.3-3.5-2.4-9.6-1.8-27.7,2.9Z"/><path class="cls-1" d="M2166.84,4.34c-9,2.4-17.5,5-18.9,5.7-5,2.7-5.1,4-5.1,56.8,0,46.3-.1,49.1-1.7,48.6-10.3-3.1-34.8-6.5-56.6-7.8-48.4-2.9-86.4,4.4-111.6,21.5-7.6,5.1-19.4,17.8-24.9,26.7-16.5,26.8-23.3,60.6-23.4,116,0,29.3,1,45.5,4.3,64,10.3,59.2,39.4,88.5,97.9,98.6,6.3,1.1,18.1,1.8,35.3,2.1,37.2,.8,56.3-1.3,90.7-9.7,32.4-7.9,42.2-16.2,44.9-38,1.4-10.6,1.5-374.7,.2-380.3-.5-2.2-1.9-5-3.2-6.3-3.2-3.4-8.3-3.1-27.9,2.1Zm-76.3,149.6c14.7,1.2,27.4,3,42.1,6l10.2,2.2v219.5l-9.2,2.1c-25.9,5.8-43.1,7.5-70.6,6.9-23.7-.6-31.9-1.8-42.7-6.8-19.9-9-31-28.9-36-64.3-3.6-25.4-3.6-69.6-.1-94.9,4.7-33.5,15.6-53.2,34.8-62.8,15.6-7.8,40.1-10.5,71.5-7.9Z"/><path class="cls-1" d="M51.64,79.74c-15.5,5.1-28.5,26.9-37.8,63.4C3.54,183.74-.86,229.84,.14,287.64c.6,34.1,1.9,51,6.3,78.2,8.2,51.1,23.5,85.5,42.2,94.7,5.4,2.6,6.4,2.8,18.2,2.7,61.4-.8,136.9-28,207-74.7,27.7-18.5,50.8-37.5,71-58.4,15.3-15.7,24.5-27.8,30.6-40.1,7.9-15.8,7.2-25.7-3.1-44.7-19-35-64.3-76.9-117-108.4-59.7-35.6-123.7-55.4-185.5-57.5-8.5-.3-16.7-.2-18.2,.3Z"/><path class="cls-1" d="M933.34,107.94c-40.1,2.7-94.7,13.9-100.9,20.8-3.6,3.9-3.7,7.5-.6,22.7,3.2,15.6,3.9,17.5,7.2,19.8,3.4,2.4,7.6,2,27.7-2.8,34.8-8.3,55.2-11.4,82.1-12.3,35.2-1.1,59.8,3.6,69.6,13.4,5.3,5.3,6.4,10.8,7.1,36l.6,22.3h-14.9c-54.9,0-118,8.7-145.4,20-24.6,10.2-40.5,27.8-46.9,52.2-4.6,17.7-5.3,45.8-1.6,63.3,7.7,36.2,31.9,59.1,72.4,68.6,15,3.5,32,4.9,59.1,4.9s44.2-1.4,67.4-5.4c34.2-6,50.8-14.1,58.3-28.3,6.5-12.1,6.4-10.3,6-128.8-.2-96.9-.4-107.6-2-113.2-4.9-18-16-31.5-32.7-39.6-15.9-7.8-33-11.7-59.5-13.7-15.7-1.1-35.2-1.1-53,.1Zm92.3,219.6l-.3,53.8-12.6,3.2c-17.9,4.5-30.8,6.3-51.4,7-38.8,1.3-61.3-3.8-75.2-17-10.4-9.9-14.9-23.9-14-44.2,1.4-28.8,11.1-39.7,42.7-47.4,18.6-4.6,46.4-7.3,87.5-8.4,5-.2,12.3-.4,16.3-.5l7.2-.2-.2,53.7Z"/><path class="cls-1" d="M1406.34,107.54c-30.6,1.8-61,6.3-85.7,12.7-18.3,4.8-23.8,7.8-25.4,14-.3,1.2,.9,9.1,2.5,17.6,2.8,14.2,3.3,15.7,6.1,18.2,4.1,3.8,6.8,3.6,28.9-1.6,45.5-10.9,81.4-14.6,112-11.7,25.3,2.5,37.6,7.7,43.4,18.6,2.1,3.7,2.2,5.7,2.5,28.1l.4,24.1-25.9,.6c-61.3,1.5-113,9.8-138.8,22.2-31.4,15.1-45.5,41.3-45.5,85.1,0,32.3,7.5,53.2,25.4,70.9,10.8,10.7,20,16.2,36,21.7,18.9,6.4,30.8,8,64.4,8.5,31.9,.6,45.9-.3,70.7-4.3,43.8-7.2,60-16.4,66.8-37.9l2.2-7v-108.5c0-100.6-.1-109.1-1.8-116.1-6.7-28.6-27.7-45-66.7-51.8-19.2-3.4-48.7-4.8-71.5-3.4Zm85.3,220l-.3,53.8-12.6,3.2c-17.9,4.5-30.8,6.3-51.4,7-38.4,1.3-62.5-4.1-75.3-16.7-9.7-9.5-14.2-22.3-14.2-40.5,0-23.3,6.8-36.8,22.5-44.7,8-4.1,28.9-9.2,45-11.2,12.9-1.5,42.7-3.4,62-3.9,5.5-.2,13.3-.4,17.3-.5l7.2-.2-.2,53.7Z"/><path class="cls-1" d="M1747.34,107.54c-29.9,2.3-54.7,5.7-77.5,10.5-33.9,7.1-51.7,14.7-58.9,25.1-6.4,9.4-6.1,1.7-6.1,146.7v131.7l2.2,2.8c3.7,4.8,7.1,5.5,25.3,5.5s21.8-.8,25-5.6c2-2.8,2-6,2.5-129.4l.5-126.5,14-3.2c31.6-7.4,62.5-11.3,87.5-11.3,33.3,.1,44.6,6,50.7,26.7,1.6,5.3,1.8,16.4,2.3,123.3,.5,111.7,.6,117.7,2.3,120.4,3.2,4.8,6.9,5.6,25.4,5.6s22.1-.9,25.5-7.1c1.8-3.3,1.8-8.2,1.5-124.9-.4-132.2-.1-126.1-6-142.2-8.8-24.2-28-38.9-58.8-45.2-14.4-2.9-40.5-4.3-57.4-2.9Z"/><path class="cls-1" d="M2368.34,107.94c-36.7,3.5-63.4,14.7-82.6,34.5-9,9.4-12.7,14.7-18.4,26.3-10.1,20.4-14.7,42.5-16.6,81-1.3,25-.1,59.4,2.7,78.1,9.7,65.5,42.5,98.7,106.2,107.4,13.1,1.9,46.4,2.1,59.2,.6,61.7-7.7,95.5-37.5,107.5-94.8,6.3-30.1,7.2-92.3,2-127.5-7.8-51.9-30.2-81.9-72.3-97.1-21.5-7.7-58.3-11.3-87.7-8.5Zm44,46.9c25.9,3.7,41.8,13.6,50.5,31.4,8.2,16.6,10,29.6,10.7,76,.8,54-1.7,77.6-10.3,95.4-4.8,10.1-14.2,19.6-23.6,24.1-14,6.6-34.5,9.8-56.3,8.7-41.5-2.1-61.9-16-70-47.9-4-15.8-5-30.1-5-70.2s1-54.4,5-70.3c3.4-13.3,7.7-21.5,15.5-29.3,9.6-9.8,22.7-15.6,40.2-17.8,9.1-1.2,35.1-1.2,43.3-.1Z"/><path class="cls-1" d="M519.04,116.84c-5,3.1-6.2,7.1-6.2,21s1.2,17.7,5.6,20.7c2.7,1.7,7.9,1.8,94.6,2.3l91.8,.5-91.1,106c-50.1,58.3-92.5,108-94,110.4l-2.9,4.5v19c0,17.4,.2,19.4,2,22.4,4,6.5-2.8,6.2,125.5,6.2s121.5,.3,125.5-6.2c1.7-2.9,2-5,2-17.1,0-15.1-.8-18-5.7-21.3-2.7-1.8-6.5-1.9-92.9-2.4l-90-.5,92.8-108c64.1-74.6,93.2-109.1,93.9-111.5,.6-2.1,.9-11.2,.7-22.2l-.3-18.8-3.3-3.2-3.2-3.3-120.8-.3c-119.7-.2-120.7-.2-124,1.8Z"/></svg>