<?xml version="1.0" encoding="UTF-8"?><svg id="Ebene_1" xmlns="http://www.w3.org/2000/svg" viewBox="0 0 1018.2 139.72"><defs><style>.cls-1{fill:#2a363b;}</style></defs><path class="cls-1" d="M35.9,1.02c-5.1,1.7-11.4,8.5-13.8,14.9-1.2,3.1-2.8,10.4-3.7,16.3-2.8,19.3-5.9,29.4-12.5,41-17.1,30.3,5,66.5,40.5,66.5,12.8,0,23.2-3.8,31.6-11.7,9.6-9,14.2-20.5,14.1-35.8,0-12.4-1.8-18.5-11.3-38.7-3.9-8.1-8.8-20-10.9-26.5C63.4,7.72,56.9,.52,45.5,.02c-3.3-.1-7.7,.3-9.6,1Zm16.8,72.2c7.3,6.1,10.3,21.6,5.6,29.5-3,5.1-7.8,8-13.3,8-9.6,0-15.1-6.9-15.1-19,0-7.9,2.3-13.3,7.4-17.8,4.8-4.2,10.9-4.5,15.4-.7Z"/><path class="cls-1" d="M587.6,16.32c-.4,.4-.7,7.5-.7,15.8v15l-3.2-3.2c-5.7-5.4-12.1-7.7-21.8-7.6-7.2,0-9.3,.4-13.6,2.6-12.5,6.5-18.8,20.1-18.8,40.8,.1,21.4,7.3,35.8,21.1,41.7,4.7,2,16.1,2.3,22.4,.5,2.5-.8,6.9-3.1,9.8-5.3l5.1-3.9v9h10l-.2-52.8-.3-52.7-4.5-.3c-2.5-.2-4.9,0-5.3,.4Zm-12.1,31.4c2.5,1.3,6,4.2,7.9,6.8l3.5,4.5v42.4l-4,4.6c-5,5.6-11.2,8.2-19.5,8.1-7.1-.1-10.8-1.8-15.8-7.3-5.7-6.4-8.1-15.5-7.5-29.4,.8-18.3,5.5-27.2,16.7-31.4,4.8-1.8,13-1,18.7,1.7Z"/><path class="cls-1" d="M781.9,26.22v10.5h-15v9h15v30.3c0,33.4,.6,38.1,5.7,42.9,4.7,4.3,12,5.8,20.2,4.2,2.9-.6,3.1-.9,3.1-5v-4.4h-5.9c-12.3,0-12.1,.6-12.1-37.5v-30.5h19v-9h-19V15.72h-11v10.5Z"/><path class="cls-1" d="M157.4,37.12c-11.9,2.9-20.2,10.8-22,20.9l-.7,3.8,5.3-.3c5.2-.3,5.3-.4,6-3.8,.9-4.3,7.1-10.2,12.7-11.8,8.2-2.5,17.9-1,23.2,3.5,4.7,3.9,6,7.3,6,15.8v7.5h-13.3c-20.6,0-30.9,3.6-37.4,13.3-8.1,12.1-4.1,27.4,9.1,34.2,5.3,2.7,6.9,3,14.5,2.9,7.2,0,9.6-.5,14.6-2.8,3.3-1.5,7.7-4,9.8-5.7l3.7-3v2.8c0,6.5,.8,7.3,6.7,7.3,5.3,0,5.5-.1,4.8-2.3-.5-1.2-1.1-15.9-1.4-32.7l-.6-30.5-2.8-5.8c-5.9-11.8-21.7-17.4-38.2-13.3Zm30.5,53.1v9.6l-4.5,4.8c-13,13.9-36.2,12.1-39.4-3-1.2-5.6,.4-10,4.8-14,5.7-5.1,12.1-6.7,26.9-6.8l12.2-.1v9.5Z"/><path class="cls-1" d="M309.8,37.02c-14.7,4.2-24.3,16.3-27.1,34-3.4,22.1,6.4,43.4,22.9,49.8,6.7,2.5,19.1,3,26,1.1,14.3-4.2,24.5-18.8,26-37.2,2.1-27.6-12.3-47.4-35.3-48.6-4.7-.2-9.7,.1-12.5,.9Zm21.7,10.5c11.6,5.9,18,22,15.5,38.9-2.7,18.1-11.8,27.7-26.6,27.8-9.1,0-15.4-3.1-20.7-10-5.5-7.3-7.1-13.5-6.6-26.4,.3-10.1,.6-11.3,3.8-17.6,5.7-11.1,13.5-15.9,24.5-15.2,3.5,.3,7.8,1.3,10.1,2.5Z"/><path class="cls-1" d="M394,37.22c-14.8,4.2-23.9,17.1-25.7,36.7-1.3,14.8,2.9,30.4,10.5,39.1,7.4,8.4,22,12.4,34.2,9.3,9.6-2.5,16.6-7.7,20.6-15.4,1.8-3.5,3.3-7.7,3.3-9.3,0-2.8-.2-2.9-4.9-2.9h-4.8l-.7,4.2c-.5,3.3-1.8,5.3-5.5,8.9-9.7,9.3-25,9.2-33.8-.4-6.4-7-7.8-11.9-7.8-28.2,0-12.6,.2-14.5,2.4-19.2,2.9-6.6,9.6-12.8,15.3-14.3,11-3,22.3,1.6,27.1,10.9,1.5,3,2.7,6.5,2.7,7.8,0,2.1,.4,2.3,5,2.3s5-.2,5-2.3c0-4.5-3-12.5-6.5-17-7.1-9.4-23.2-13.9-36.4-10.2Z"/><path class="cls-1" d="M472.8,37.02c-12.1,3.4-21.9,13.3-21.9,22.2,0,2.3,.3,2.5,4.9,2.5s4.9-.1,5.5-3.1c.8-4.3,8.1-11.4,13.1-12.8,8.3-2.3,18.9-.7,23.7,3.6,3.6,3.2,5.8,9.3,5.8,16.4v6.7l-15.7,.4c-13.5,.4-16.7,.8-21.7,2.8-17.3,6.7-23.2,25.7-12.1,38.7,10.1,11.9,32.5,12,45.9,.2l3.5-3,.6,3.8c1.1,6.3,1,6.3,7,6.3,4.9,0,5.6-.2,5.1-1.8-2-6.1-2.6-15.4-2.6-37.5,0-16.2-.4-26.3-1.2-28.9-1.7-5.7-7.8-12.1-14-14.8-6.4-2.8-19.1-3.6-25.9-1.7Zm31.1,52.2c0,9.6-1,12.3-6.2,17.1-5.6,5.4-11.6,7.6-20.3,7.6-6.4,0-11-1.8-14.4-5.7-4-4.6-4.8-9.3-2.6-15.1,3.3-8.8,12.1-12.2,31.3-12.3l12.2-.1v8.5Z"/><path class="cls-1" d="M638.8,37.02c-17.4,5-27.9,20.7-27.9,42.2,0,23.9,11.5,40,31.1,43.6,7.6,1.4,16.6,.2,23.4-3.1,15.4-7.5,23.5-26.4,20.6-48.2-2.9-21.3-15.8-34.4-34.7-35.4-4.7-.2-9.7,.1-12.5,.9Zm18.2,9.2c6.7,2.3,11.4,6.7,15.1,14.3,3.2,6.5,3.3,7,3.3,19.2s-.1,12.7-3.3,19.2c-5.4,11.1-14.7,16.6-25.7,15.5-15.3-1.6-24.7-14.3-24.9-33.7-.1-18,6.5-30.1,19-34.5,5.2-1.9,11-1.8,16.5,0Z"/><path class="cls-1" d="M719.4,37.12c-6.4,2-9.9,4.2-13.8,8.5-7.2,7.9-7.4,18.8-.6,26.6,4,4.5,9.1,6.8,22.6,10.4,18,4.7,23.8,9,23.8,17.7,0,4-.5,5-4.1,8.4-10.1,9.4-31.9,6.8-37.4-4.5-1.1-2.3-2-4.7-2-5.3,0-.8-1.9-1.2-5.5-1.2h-5.4l.5,3.2c2.6,14.5,14.6,22.3,33.9,22.3,10.8-.1,16.1-1.7,23.3-7.2,9.5-7.2,9.6-25.4,.1-32.5-5.4-4.1-9-5.6-21.1-8.8-14-3.8-19.4-6.4-21.3-10.1-3.3-6.4-1-13.1,5.9-17,6-3.4,17.4-3.4,23.6,.1,4.9,2.8,9,8,9,11.6,0,2.2,.4,2.4,5.6,2.4h5.7l-.7-4.1c-1.6-9.8-7.9-16.7-18.5-19.9-7.2-2.3-17.5-2.5-23.6-.6Z"/><path class="cls-1" d="M842.2,37.52c-14.3,5.1-23,16.7-25.4,33.8-2,13.9,1.5,29.5,8.4,38.3,7.6,9.6,20,14.9,31.9,13.8,9.5-.9,15.2-3.3,21.4-9,9.3-8.4,13.4-19.1,13.4-34.6s-3.6-25.6-12.5-34c-7.4-7-12.8-9.3-23.5-9.8-6.5-.3-9.7,.1-13.7,1.5Zm23.6,10.2c5.2,2.6,10.6,9.1,13.2,15.9,3.1,8,3.1,24.2,0,32.2-2.6,6.9-8,13.3-13.5,16.1-5.7,3-16.5,3-22.2,0-5.6-2.9-11.9-10.3-14.1-16.5-2.6-7.4-2.5-24.2,.1-31.7,2.5-7,11.2-16.2,17.1-17.8,5.4-1.5,14.7-.7,19.4,1.8Z"/><path class="cls-1" d="M929.5,36.92c-2.3,.7-5.8,2.9-8.7,5.7l-4.8,4.6-.3-5-.3-5h-10l-.3,42.2-.2,42.3h11V62.22l3-5.2c4.3-7.4,10.2-10.8,19.2-10.8h6.8v-4.6c0-3.4-.5-4.9-1.6-5.3-2.3-.9-9.3-.6-13.8,.6Z"/><path class="cls-1" d="M971.5,38.12c-14.9,6.3-23.2,19.3-24.3,38.2-1.4,22.8,8.5,39.9,26.5,45.4,9.9,3.1,20.7,2.3,29.7-2.2,4.1-2.1,12.5-9.5,12.5-11.1,0-1.1-4.2-4.6-5.6-4.7-.5,0-2.3,1.3-3.8,2.9-7,7.3-23.4,10-32.2,5.3-9.1-4.7-15.3-14.3-16.2-24.9l-.5-6.3h60.6l-.5-9.3c-1.3-22-12.4-34.3-32-35.4-7.2-.3-9.1-.1-14.2,2.1Zm23.5,9.6c6.4,3.3,10.9,10.7,12.2,20.2l.6,3.8h-50.1l.7-3.3c2.1-9.7,10.6-20.8,17.2-22.2,1.5-.4,3.3-.9,3.8-1.1,2.3-.8,11.9,.8,15.6,2.6Z"/><path class="cls-1" d="M205.9,38.42c0,.5,7.2,19.2,15.9,41.8l15.9,41,4.8,.3,4.9,.3,11.4-29.8c6.3-16.4,13.6-35.3,16.2-42.1l4.7-12.2h-11.3l-12.5,33.6c-6.8,18.4-12.7,33.7-13.1,33.9-.3,.3-6.4-14.8-13.4-33.5l-12.8-34h-5.3c-3,0-5.4,.3-5.4,.7Z"/></svg>