<?xml version="1.0" encoding="UTF-8"?><svg id="Ebene_1" xmlns="http://www.w3.org/2000/svg" viewBox="0 0 2382 1128.91"><defs><style>.cls-1{fill:#2a363b;}</style></defs><path class="cls-1" d="M702.5,.6c-2.9,.5-42.8,4.1-65.5,5.9-64.1,5-55.3,4.8-255,5.2-179.8,.4-282.6-.5-363.7-3.3L0,7.8V54.8l5.3,1.2c2.8,.6,19.9,4.2,37.9,8.1,35.7,7.6,43.4,9.6,52.1,14,11.9,6.1,18.7,15.7,20.7,29.4,4.5,31.5,7.3,385.7,4.2,529.5-2.1,96.5-3.2,122.5-5.3,130.9-3.3,12.8-9.8,20.5-22.4,26.9-8.8,4.4-15.8,6.3-53.7,14.7-18.8,4.2-35.3,7.8-36.6,8.2l-2.2,.5v45.8H9.8c5.3,0,50.4-.9,100.2-2.1,82.4-1.9,107.7-2,283-1.6,105.9,.3,210.3,1,232,1.6,21.7,.5,54.6,1.3,73,1.7l33.6,.7,1.7-17.4c6.2-60.8,26.5-230.9,28.2-235.7,.3-.9-4.3-1.2-21.3-1.2l-21.7,.1-21.4,47.7c-28.7,63.9-33.8,74.5-41.5,86.2-7.4,11.2-19.8,24.7-29.6,32.1-8.5,6.5-24.3,14.2-35.2,17.3-25,7.2-41.1,7.9-167.8,7.3-110.4-.5-108.2-.3-126-6.2-22-7.3-35.2-22.4-40-45.5-1.9-9.2-2-14.4-2-150.8v-141.2h5.8c28.6,.1,123.4,2.2,139.4,3,44.2,2.3,60.1,6.5,72.9,19,12.5,12.3,17.9,26,26.8,68l6.7,31.5,25.9,.3,25.8,.2-.6-15.7c-.3-8.7-1.4-43.9-2.4-78.3l-1.7-62.5,4.2-74c2.4-40.7,4.2-74.6,4.2-75.3,0-.9-5.8-1.2-25.4-1.2h-25.4l-9.5,38.7c-5.3,21.4-10.1,41.3-10.8,44.3-1.9,9-5.9,19.1-9.7,24.9-6.6,9.9-18,15.3-42.2,20-18,3.5-80.6,6.1-147.7,6.1h-36.3V74.8l2.8-2.8c1.9-1.9,4.3-3,7.3-3.5,2.4-.3,71-.5,152.4-.3l148,.3,7.2,2.6c30.8,11.3,49.9,40.7,64.8,99.7,2.4,9.6,8.1,30.2,12.6,45.8l8.2,28.4h46.5l.6-11.3c.3-6.1,1-28.8,1.6-50.2,1.7-63,5.3-158.7,6.6-175.8l.5-7.7-4.8,.1c-2.6,.1-5.7,.3-6.8,.5Z"/><path class="cls-1" d="M956.1,126.2c-2.3,11.8-9.2,39.3-12.7,50.8-24.3,78.3-68.3,125.4-131.9,141.3-8,2-27.9,5.7-30.9,5.7-.3,0-.6,9.4-.6,21v21h103v180.2c0,99.2,.5,187,1,195.3,1.1,17.4,3.5,31.3,7.9,44.6,15.8,47.5,55.2,81.2,107.6,91.8s114.6-.7,157.5-28.6c18.6-12.2,34.5-28.2,43.8-44.5,7.8-13.8,8.3-11.4-5.9-28.2l-12.4-14.6-1.9,2.7c-1,1.6-6.2,7.1-11.5,12.3-14.2,13.9-30.5,23-51.8,28.7-8.8,2.4-11.7,2.6-28.3,2.7-14.9,.1-19.8-.2-25-1.7-30.4-8.4-48.7-33.1-55.9-75.8-3.7-21.7-4.1-39.4-4.1-206.8v-162.4l6.3,.6c16.1,1.6,166.9,12.9,167.2,12.6,.7-.8,8.7-80,8.1-80.6-.3-.4-16.2,.1-35.4,1.1-19.1,.9-51.8,2.6-72.7,3.6s-44.9,2.2-53.2,2.6l-15.3,.7V120h-51.7l-1.2,6.2Z"/><path class="cls-1" d="M1470,277.1c-116.2,9.4-182.5,72.6-178.7,170.4,1.6,40.5,14,70.8,40,98.1,25.4,26.6,49.4,41.1,120.2,72.6,60.6,26.9,82.9,39.9,102,59.2,20.2,20.4,28.5,42.1,27.2,71.3-.6,14.7-2.4,22.5-7.7,33.8-14.2,30.6-44.2,46.6-90,48.2-47.3,1.6-82.3-12.5-104.2-42.1-7.5-10-10.7-16.8-31.9-67.8l-17.4-41.8h-43l1.7,22.2c3.7,47,3.5,105.8-.5,133.2l-1.3,8.6,16.5,5.4c65.2,21.4,133.3,32,183.7,28.7,42.6-2.7,76.2-10.8,106.9-25.6,51.8-25,83.6-65.4,93.1-118,2.4-13.3,2.4-43,.1-56.5-9.1-52.7-39.7-90.8-100.2-124.4-16.1-9-36-18.6-65.5-31.8-65.9-29.3-93.7-46-111.1-66.5-13.9-16.3-19.9-32.1-19.9-52.8,0-27.1,11.5-47.7,34.3-61.4,29.3-17.7,76.4-22,113.1-10.4,15.3,4.8,31.4,14.5,37.9,22.8,4.4,5.5,7.2,12.6,22.2,55.7l13.9,39.8,4.5-.1c2.6,0,12-.8,21.1-1.7l16.5-1.7,.7-20.5c1.3-36.8,5.2-77.1,10.3-106.9,1.4-8,2.2-14.8,1.8-15.2-1.5-1.4-21.4-7.8-33.8-10.9-45.2-11.1-118.8-17.4-162.5-13.9Z"/><path class="cls-1" d="M1944,293.8l-77.5,4.3-61-2.1c-33.5-1.1-63.6-2-66.7-2h-5.8v42.8l7.3,2.7c3.9,1.5,12.2,4.4,18.4,6.5,23.7,8.1,28.9,13,42.2,39.7,12.3,24.8,47.4,104.9,79.3,181.2,20.8,50,39.3,95.6,89.3,220.4l45.2,112.7-6.4,10.6c-20.8,34.6-42.5,62.8-66.4,86-38.7,37.5-79.2,57.2-121.4,59.1-29.8,1.4-48.2-8.7-55.3-30.3-1.1-3.2-5.9-26.6-10.8-51.9-4.8-25.3-9-46.3-9.3-46.7s-10.3,.2-22.1,1.3c-11.8,1-22.2,1.9-23,1.9-1.3,0-2.2,4.3-4.9,21.7-8.8,57.2-17.1,102.6-24,130.6l-2.9,11.9,4.7,3c7.7,5,30,15.5,40.6,19.1,21.9,7.5,44.1,11.4,70.5,12.4,65.6,2.3,116.9-13.9,166.9-52.7,12.4-9.7,35.9-32.6,48.6-47.5,34.7-40.8,66.2-92.2,96.6-157.7,3.9-8.4,50.5-117,103.6-241.3,53-124.3,98.5-229.8,101-234.5,11.9-22.3,19.5-28.9,46.7-40.5,11.1-4.8,15-7,23.9-14.1l10.7-8.5v-41.9l-11.7,.1c-6.5,0-31.6,.8-55.8,1.8-45.2,1.7-55.3,1.6-156.7-2.1l-9.8-.4v21.3c0,11.7,.1,21.3,.3,21.3s9.6,2.7,20.9,6c31.4,9,42.5,15.5,49,28.7,2.8,5.7,3.3,7.9,3.6,15.7,.4,8.7,.1,9.8-4.6,24.7-12.9,40.2-105.6,263.8-136.9,329.9-4.1,8.6-5.6,11.1-6.3,9.9-5.3-9.3-72.6-188.3-105.8-281.5-30.1-84.3-27.7-76.9-27.7-86,.1-7.1,.5-8.9,3.3-14.7,5-10,13.8-17,26.7-21,2.8-.8,15-3.7,27.2-6.3s22.7-5,23.3-5.4c.7-.4,.9-7.8,.8-21.6l-.3-20.9-77.5,4.3Z"/></svg>