<?xml version="1.0" encoding="UTF-8"?><svg id="Ebene_1" xmlns="http://www.w3.org/2000/svg" viewBox="0 0 1018.2 139.72"><defs><style>.cls-1{fill:#2a363b;}</style></defs><path class="cls-1" d="m495.78,1c-.35.06-5.23.5-8,.72-7.83.61-6.75.59-31.14.64-21.96.05-34.51-.06-44.42-.4l-2.23-.07v5.74l.65.15c.34.07,2.43.51,4.63.99,4.36.93,5.3,1.17,6.36,1.71,1.45.74,2.28,1.92,2.53,3.59.55,3.85.89,47.1.51,64.67-.26,11.79-.39,14.96-.65,15.99-.4,1.56-1.2,2.5-2.74,3.29-1.07.54-1.93.77-6.56,1.8-2.3.51-4.31.95-4.47,1l-.27.06v5.59h1.2c.65,0,6.16-.11,12.24-.26,10.06-.23,13.15-.24,34.56-.2,12.93.04,25.68.12,28.33.2,2.65.06,6.67.16,8.92.21l4.1.09.21-2.13c.76-7.43,3.24-28.2,3.44-28.79.04-.11-.53-.15-2.6-.15h-2.65s-2.61,5.84-2.61,5.84c-3.51,7.8-4.13,9.1-5.07,10.53-.9,1.37-2.42,3.02-3.61,3.92-1.04.79-2.97,1.73-4.3,2.11-3.05.88-5.02.96-20.49.89-13.48-.06-13.21-.04-15.39-.76-2.69-.89-4.3-2.74-4.89-5.56-.23-1.12-.24-1.76-.24-18.42v-17.24h.71c3.49.01,15.07.27,17.02.37,5.4.28,7.34.79,8.9,2.32,1.53,1.5,2.19,3.18,3.27,8.3l.82,3.85,3.16.04,3.15.02-.07-1.92c-.04-1.06-.17-5.36-.29-9.56l-.21-7.63.51-9.04c.29-4.97.51-9.11.51-9.2,0-.11-.71-.15-3.1-.15h-3.1l-1.16,4.73c-.65,2.61-1.23,5.04-1.32,5.41-.23,1.1-.72,2.33-1.18,3.04-.81,1.21-2.2,1.87-5.15,2.44-2.2.43-9.84.74-18.04.74h-4.43V10.06l.34-.34c.23-.23.53-.37.89-.43.29-.04,8.67-.06,18.61-.04l18.07.04.88.32c3.76,1.38,6.09,4.97,7.91,12.18.29,1.17.99,3.69,1.54,5.59l1,3.47h5.68l.07-1.38c.04-.74.12-3.52.2-6.13.21-7.69.65-19.38.81-21.47l.06-.94h-.59c-.32.02-.7.05-.83.07h0Z"/><path class="cls-1" d="m526.75,16.34c-.28,1.44-1.12,4.8-1.55,6.2-2.97,9.56-8.34,15.31-16.11,17.26-.98.24-3.41.7-3.77.7-.04,0-.07,1.15-.07,2.56v2.56h12.58v22.01c0,12.11.06,22.84.12,23.85.13,2.13.43,3.82.96,5.45,1.93,5.8,6.74,9.92,13.14,11.21,6.4,1.29,14-.09,19.23-3.49,2.27-1.49,4.21-3.44,5.35-5.43.95-1.69,1.01-1.39-.72-3.44l-1.51-1.78-.23.33c-.12.2-.76.87-1.4,1.5-1.73,1.7-3.72,2.81-6.33,3.51-1.07.29-1.43.32-3.46.33-1.82.01-2.42-.02-3.05-.21-3.71-1.03-5.95-4.04-6.83-9.26-.45-2.65-.5-4.81-.5-25.26v-19.83l.77.07c1.97.2,20.38,1.58,20.42,1.54.09-.1,1.06-9.77.99-9.84-.04-.05-1.98.01-4.32.13-2.33.11-6.33.32-8.88.44s-5.48.27-6.5.32l-1.87.09V15.58h-6.31l-.15.76h0Z"/><path class="cls-1" d="m589.51,34.77c-14.19,1.15-22.29,8.87-21.82,20.81.2,4.95,1.71,8.65,4.89,11.98,3.1,3.25,6.03,5.02,14.68,8.87,7.4,3.29,10.12,4.87,12.46,7.23,2.47,2.49,3.48,5.14,3.32,8.71-.07,1.8-.29,2.75-.94,4.13-1.73,3.74-5.4,5.69-10.99,5.89-5.78.2-10.05-1.53-12.73-5.14-.92-1.22-1.31-2.05-3.9-8.28l-2.13-5.1h-5.25l.21,2.71c.45,5.74.43,12.92-.06,16.27l-.16,1.05,2.02.66c7.96,2.61,16.28,3.91,22.43,3.51,5.2-.33,9.31-1.32,13.06-3.13,6.33-3.05,10.21-7.99,11.37-14.41.29-1.62.29-5.25.01-6.9-1.11-6.44-4.85-11.09-12.24-15.19-1.97-1.1-4.4-2.27-8-3.88-8.05-3.58-11.44-5.62-13.57-8.12-1.7-1.99-2.43-3.92-2.43-6.45,0-3.31,1.4-5.83,4.19-7.5,3.58-2.16,9.33-2.69,13.81-1.27,1.87.59,3.83,1.77,4.63,2.78.54.67.88,1.54,2.71,6.8l1.7,4.86h.55c.32-.01,1.47-.11,2.58-.22l2.02-.21.09-2.5c.16-4.49.64-9.42,1.26-13.06.17-.98.27-1.81.22-1.86-.18-.17-2.61-.95-4.13-1.33-5.52-1.36-14.51-2.12-19.85-1.7h0Z"/><path class="cls-1" d="m647.4,36.81l-9.46.53-7.45-.26c-4.09-.13-7.77-.24-8.15-.24h-.71v5.23l.89.33c.48.18,1.49.54,2.25.79,2.89.99,3.53,1.59,5.15,4.85,1.5,3.03,5.79,12.81,9.68,22.13,2.54,6.11,4.8,11.68,10.91,26.92l5.52,13.76-.78,1.29c-2.54,4.23-5.19,7.67-8.11,10.5-4.73,4.58-9.67,6.99-14.83,7.22-3.64.17-5.89-1.06-6.75-3.7-.13-.39-.72-3.25-1.32-6.34-.59-3.09-1.1-5.65-1.14-5.7s-1.26.02-2.7.16c-1.44.12-2.71.23-2.81.23-.16,0-.27.53-.6,2.65-1.07,6.99-2.09,12.53-2.93,15.95l-.35,1.45.57.37c.94.61,3.66,1.89,4.96,2.33,2.67.92,5.39,1.39,8.61,1.51,8.01.28,14.28-1.7,20.38-6.44,1.51-1.18,4.38-3.98,5.94-5.8,4.24-4.98,8.08-11.26,11.8-19.26.48-1.03,6.17-14.29,12.65-29.47,6.47-15.18,12.03-28.06,12.33-28.64,1.45-2.72,2.38-3.53,5.7-4.95,1.36-.59,1.83-.85,2.92-1.72l1.31-1.04v-5.12h-1.43c-.79.01-3.86.11-6.81.23-5.52.21-6.75.2-19.14-.26l-1.2-.05v2.6c0,1.43.01,2.6.04,2.6s1.17.33,2.55.73c3.83,1.1,5.19,1.89,5.98,3.51.34.7.4.96.44,1.92.05,1.06.01,1.2-.56,3.02-1.58,4.91-12.9,32.22-16.72,40.29-.5,1.05-.68,1.36-.77,1.21-.65-1.14-8.87-23-12.92-34.38-3.68-10.3-3.38-9.39-3.38-10.5.01-.87.06-1.09.4-1.8.61-1.22,1.69-2.08,3.26-2.56.34-.1,1.83-.45,3.32-.77s2.77-.61,2.85-.66c.09-.05.11-.95.1-2.64l-.04-2.55-9.46.53h0Z"/></svg>