<?xml version="1.0" encoding="UTF-8"?><svg id="Ebene_1" xmlns="http://www.w3.org/2000/svg" viewBox="0 0 1018.2 139.72"><defs><style>.cls-1{fill:#2a363b;}</style></defs><path class="cls-1" d="m347.39.64c-12.2,1.4-23.44,6.62-32.22,15-9.18,8.78-14.83,19.79-16.49,32.12-.6,4.26-.27,12.9.63,17.13,2.19,10.24,7.22,19.42,14.83,27.03,7.65,7.68,17.19,12.87,27.93,15.16,4.19.9,13.6,1.23,18.36.67,11.87-1.46,21.32-5.99,29.36-14.07,1.76-1.76,3.99-4.36,4.95-5.72,4.82-7.02,7.75-15.93,8.28-25.31.23-3.92,0-11.31-.4-12.3-.17-.43-3.19-.5-24.97-.5h-24.77v14.63h35.25l-.2,1.06c-1.4,8.01-4.09,13.6-8.75,17.99-6.95,6.55-15.8,9.88-26.24,9.88-19.15,0-35.02-13.63-38.17-32.75-.76-4.66-.5-11.47.63-15.83,3.79-14.63,13.67-24.67,28.23-28.63,2.46-.67,3.52-.76,9.41-.73,6.12,0,6.92.07,9.88.86,5.39,1.46,11.07,4.46,15.03,7.95l1.6,1.4,5.12-5.12c2.83-2.79,5.12-5.19,5.12-5.32,0-.1-1.16-1.16-2.56-2.36-7.38-6.22-15.5-10.08-24.37-11.61-4.46-.76-11.67-1.06-15.46-.63Z"/><path class="cls-1" d="m634.87,55.18v50.88h14.96V4.3h-14.96v50.88h0Z"/><path class="cls-1" d="m437.44,39.38c-6.68,1.2-12.8,4.29-17.69,8.98-9.61,9.21-13,23.18-8.78,36.25,3.59,11.11,12.4,19.32,24.11,22.51,2.39.67,3.56.73,8.91.76,7.45,0,10.28-.63,16.13-3.56,15.06-7.55,22.28-25.41,16.89-42-3.86-11.97-14.03-20.75-26.67-22.94-3.36-.6-9.64-.6-12.9,0h0Zm11.04,13.63c6.88,1.76,12.37,7.32,14.33,14.5.8,2.93.8,9.01,0,11.94-1.5,5.55-5.75,10.81-10.51,13.07-7.62,3.59-15.73,2.19-21.65-3.72-4.32-4.32-6.09-8.75-6.09-15.33,0-2.63.2-4.49.6-5.95,1.93-7.12,7.42-12.7,14.17-14.47,2.43-.63,6.68-.67,9.14-.03h0Z"/><path class="cls-1" d="m511.83,39.55c-7.02,1.5-12.17,4.19-17.09,8.95-3.26,3.16-5.12,5.75-7.02,9.71-2.83,5.99-3.92,12.4-3.23,18.85.53,4.72,1.4,7.81,3.39,11.87,4.42,9.14,12.3,15.53,22.45,18.19,3.39.9,10.74,1.2,14.4.6,15.83-2.53,27.37-14.73,28.96-30.69,1.86-18.39-10.21-34.52-28.2-37.64-3.82-.67-10.14-.6-13.67.17Zm13.7,14.03c5.82,2.16,10.08,6.75,12.14,13.07,1.1,3.36,1.23,9.04.33,12.47-2,7.48-7.42,13.04-14.5,14.83-2.89.73-7.78.5-10.47-.47-8.81-3.19-14.07-11.8-13.37-21.78.63-9.18,6.52-16.53,15-18.75,2.63-.67,8.15-.37,10.87.63h0Z"/><path class="cls-1" d="m586.68,39.38c-6.25,1.36-11.57,4.19-16.36,8.71-4.26,4.02-7.15,8.61-9.08,14.4-4.29,12.94-.86,26.8,8.98,36.25,6.35,6.09,12.84,8.91,21.25,9.21,3.62.13,4.79.07,7.25-.53,3.96-.93,7.55-2.76,10.08-5.09,1.13-1.06,2.23-1.93,2.46-1.93.57,0,.17,8.21-.57,11.47-1.8,8.18-7.58,13.04-16.23,13.67-5.02.37-9.88-1.26-13.6-4.59-1.83-1.6-5.19-6.28-5.19-7.18,0-.3-.23-.37-.7-.23-1.1.37-12.34,5.09-12.54,5.29-.6.63,3.33,6.85,6.42,10.14,5.92,6.25,13.37,9.71,22.15,10.24,8.78.5,17.16-1.93,23.28-6.82,6.02-4.76,10.08-12.87,11.24-22.51.23-2,.37-14.07.37-36.01v-32.99h-14.3v2.83c0,1.56-.13,2.83-.27,2.83s-1.06-.76-2.06-1.7c-2.23-2.06-7.48-4.69-10.87-5.42-2.93-.67-8.78-.67-11.71-.03h0Zm11.57,13.63c3.19.83,5.39,2.16,8.05,4.79,4.22,4.19,6.05,8.95,6.09,15.66,0,4.52-.53,6.92-2.46,10.87-6.22,12.7-23.38,13.6-31.46,1.7-7.25-10.64-3.62-26.1,7.35-31.52,1.46-.73,3.26-1.43,3.99-1.63,2.06-.47,6.45-.4,8.45.13h0Z"/><path class="cls-1" d="m682.45,39.38c-6.82,1.53-13.07,5.02-17.23,9.61-3.76,4.16-6.82,10.14-8.15,15.96-.93,3.92-1,12.4-.17,16.03,2.99,13.1,11.84,22.48,24.37,25.97,3.03.83,3.79.93,9.28.93s6.35-.1,8.81-.76c7.15-1.96,13.17-5.79,17.86-11.37,1.16-1.36,2.09-2.66,2.09-2.83,0-.33-10.71-7.58-11.44-7.71-.2-.07-.8.53-1.36,1.26-1.56,2.13-4.62,4.76-6.92,5.89-2.89,1.46-5.52,2.06-9.04,2.06-5.42,0-9.34-1.53-12.8-4.99-2-2-4.02-5.05-3.62-5.45.1-.1,10.34-4.39,22.75-9.51,12.44-5.15,22.75-9.48,22.91-9.64s-.3-1.8-1.13-3.82c-4.49-11.17-12.27-18.69-21.95-21.28-2.99-.8-11.37-1-14.27-.33Zm10.28,13.14c3.62.7,7.48,3.23,9.08,5.95.4.69.34,1.13-.17,1.33-.43.17-7.25,3.03-15.2,6.32-7.95,3.33-14.56,6.02-14.73,6.02-.47,0-.3-3.59.27-5.75,2.43-9.38,11.74-15.56,20.75-13.87h0Z"/></svg>