<svg xmlns="http://www.w3.org/2000/svg" viewBox="0 0 321.55074 125.12353"><defs><style>.cls-1,.cls-2{fill:#623b80;}.cls-2{isolation:isolate;font-size:66.3971px;font-family:Futura-Medium, Futura;font-weight:500;letter-spacing:0.05999em;}</style></defs><title>pineappElement 1</title><g id="Ebene_2" data-name="Ebene 2"><g id="Ebene_1-2" data-name="Ebene 1"><path class="cls-1" d="M118.23,12.8323c-27.57-4.72-64.02,31.89-87.95,60.74,22.82,1.35,54.69-3.35,78.39-6.85,10.77-1.59,20.21-2.98,27.39-3.66a19.681,19.681,0,0,0-.96-8.1l-11.6-34.18A18.59668,18.59668,0,0,0,118.23,12.8323Z"/><path class="cls-1" d="M109.41,71.77231c-21.86,3.23-48.35,7.14-70.14,7.14-4.54,0-8.86-.18-12.91-.56-9.39,11.62-16.36,21.39-19.4,25.73a15.05357,15.05357,0,0,0,6.65,3.67l66.43,16.98a12.59663,12.59663,0,0,0,12.8-4.15l38.76-46.71a19.8227,19.8227,0,0,0,3.25-5.57C128.02,69.02231,119.28,70.31232,109.41,71.77231Z"/><path class="cls-1" d="M1.67,57.8923a11.023,11.023,0,0,0,3.99,8.8c3.9,3.36,10.33,5.33,18.32,6.31,21.32-26.16,53.97-60.23,82.62-65.11L68.84.38231a19.92357,19.92357,0,0,0-18.02,5.5l-44.7,44.96a21.3706,21.3706,0,0,0-4.65,7.05h.2Z"/><path class="cls-1" d="M2.33,70.56232a17.79051,17.79051,0,0,1-2.33-2.44l2.25,26.23a15.07,15.07,0,0,0,1.5,5.38c3.2-4.58,8.99-12.63,16.55-22.15C12.68,76.3323,6.45,74.1123,2.33,70.56232Z"/><text class="cls-2" transform="translate(176.12801 62.45129)">pine</text></g></g></svg>