<?xml version="1.0" encoding="UTF-8"?><svg id="Ebene_1" xmlns="http://www.w3.org/2000/svg" viewBox="0 0 1018.2 139.72"><defs><style>.cls-1{fill:#2a363b;}</style></defs><path class="cls-1" d="m235.33,4.7c-21.77,5.85-40.15,31.91-45.84,65.06-1.73,10.14-2.06,28.61-.49,35.45,1.57,7.26,6.1,16.24,10.64,20.86,7.17,7.34,18.06,10.72,29.68,9.15,15.42-2.14,26.06-13.52,46.83-50.21,5.85-10.39,10.88-18.88,11.13-18.88.25-.08,6.02,9.07,12.78,20.28,22.84,38.09,31.25,46.67,47.91,48.98,18.47,2.56,31.5-7.01,37.1-27.29,2.23-8,1.98-31.17-.41-42.55-7.34-34.71-25.56-57.63-48.81-61.43-13.44-2.14-28.28,5.69-41.23,21.93l-4.12,5.19-9.73-9.65c-7.42-7.42-10.97-10.39-15.58-12.78-9.89-5.11-20.7-6.6-29.85-4.12Zm103.56,17.64c9.73,4.29,18.47,15.91,23.83,31.66,5.11,14.92,7.09,38.34,4.12,48.48-3.96,13.6-16.66,16.33-26.22,5.77-4.04-4.53-12.45-17.15-24.16-36.44-5.36-8.82-11.38-18.55-13.27-21.6l-3.55-5.52,2.97-4.37c12.45-18.14,23.5-23.58,36.28-17.97h0Zm-84.18,4.86c4.53,2.06,13.03,10.06,18.63,17.56l4.12,5.61-12.62,19.54c-25.15,39.25-30.18,44.77-40.4,44.77-5.69,0-9.89-3.05-12.78-9.23-2.31-5.03-2.39-5.61-2.31-17.15,0-8.99.49-13.77,1.73-19.46,5.36-22.92,16.99-39.99,29.52-43.29,3.63-.99,9.81-.25,14.1,1.65Z"/><path class="cls-1" d="m429.02,70.58v63.08h20.61l.16-47.99.25-47.99,18.39,33.15,18.47,33.23,9.56-.25,9.56-.25,18.22-32.73c9.98-18.06,18.39-32.73,18.8-32.82.33,0,.58,21.52.58,47.82v47.82h19.79V7.5h-12.12l-12.2.08-21.03,38.18c-11.54,21.03-21.27,38.09-21.52,37.93-.33-.16-9.98-17.4-21.44-38.26l-20.94-37.93h-25.15v63.08Z"/><path class="cls-1" d="m696.16,26.05v13.6h-18.96v16.41l9.32.25,9.23.25.41,28.45c.41,27.54.49,28.61,2.39,33.31,3.3,8.33,9.56,13.85,18.14,16.16,4.53,1.24,16.9,1.24,22.76,0l4.53-.91v-16.08l-9.23.33c-11.46.33-14.02-.66-17.15-6.93-2.06-4.04-2.06-4.21-2.31-29.44l-.25-25.31h28.94v-16.49h-28.86V12.45h-18.96v13.6Z"/><path class="cls-1" d="m621.13,38.01c-14.76,1.81-27.37,10.8-33.81,24.32-3.71,7.83-4.78,11.96-5.44,21.11-1.73,24.74,12.62,45.6,35.12,51.12,6.27,1.57,20.53,1.32,27.21-.41,9.23-2.39,23.91-10.39,23.91-13.03,0-.41-2.23-3.55-5.03-6.84l-4.95-6.1-4.29,3.3c-7.17,5.44-11.87,6.84-22.84,6.84-8.49.08-9.89-.16-13.6-1.98-7.5-3.71-13.77-11.87-15.01-19.54l-.49-2.72h68.68v-7.34c0-20.04-8.74-37.1-22.67-44.28-7.67-4.04-17.07-5.61-26.8-4.45h0Zm14.1,17.81c3.38.99,5.44,2.31,8.66,5.61,4.12,4.21,5.94,7.92,7.34,15.09l.58,2.72h-24.82c-28.45,0-26.3.74-23-8,2.39-6.43,9.48-13.6,15.17-15.42,5.36-1.57,10.55-1.65,16.08,0h0Z"/><path class="cls-1" d="m790.98,38.09c-17.15,1.9-31.08,15.01-36.03,33.72-1.9,7.26-1.9,22.43,0,29.68,5.19,19.95,18.88,32.49,37.43,34.22,11.05,1.07,22.26-2.72,29.85-10.06,2.47-2.39,4.62-4.37,4.78-4.37s.25,2.8.25,6.18v6.18h18.96V39.66h-18.96v11.71l-4.29-3.96c-5.11-4.53-12.62-8.33-17.89-8.99-7.26-.91-8.74-.91-14.1-.33Zm19.13,18.72c5.61,2.06,10.64,5.94,13.69,10.47l2.64,3.96v30.84l-2.56,3.88c-4.95,7.42-12.2,11.3-21.85,11.87-9.48.49-14.18-1.15-20.2-7.26-6.02-6.02-8.25-12.37-8.33-23.66,0-15.67,6.18-26.06,17.89-30.1,5.28-1.81,13.69-1.81,18.72,0h0Z"/></svg>