<?xml version="1.0" encoding="UTF-8"?><svg id="Ebene_1" xmlns="http://www.w3.org/2000/svg" viewBox="0 0 1018.2 139.72"><defs><style>.cls-1{fill:#2a363b;}</style></defs><path class="cls-1" d="m353.77,1.21c-19.3,2.6-33.7,11.32-43.42,26.28-4.28,6.53-8.62,17.28-10.61,26.31-2.16,9.61-3.42,21.55-3.39,31.75,0,7.87.44,11.74,1.98,17.82,3.46,13.72,11.53,24.05,23.44,29.94,8.11,4,16.63,5.75,28.05,5.71,30.52-.1,51.39-14.4,61.31-42.01,3.9-10.78,6.26-25.11,6.67-40.06.21-7.66-.17-12.86-1.4-18.24-.41-1.92-.68-3.52-.62-3.63.31-.27,32.16-.21,32.33.07.07.17-1.98,18.27-4.58,40.3-2.91,24.8-4.72,41.33-4.72,43.48-.07,8.11,2.91,13.58,9,16.56,4.38,2.12,7.12,2.53,16.11,2.29,6.23-.17,10.57-.58,10.98-1.03.03-.03,2.63-22.79,5.75-50.53,3.15-27.75,5.78-50.67,5.85-50.91.1-.31,4.21-.41,18.99-.41,18.03,0,18.82.03,18.82.62,0,.34-2.09,18.47-4.65,40.3-4.93,41.77-5.2,44.99-4.14,49.03,1.64,6.19,5.92,10.37,12.52,12.25,4.04,1.13,21.25.86,22.72-.38.34-.27,1.98-13.82,6.06-49.81,3.04-27.2,5.65-49.99,5.78-50.64l.24-1.2,12.45-.17c11.8-.21,12.62-.24,14.88-.99,1.33-.41,3.35-1.3,4.55-1.95,1.16-.62,2.12-1.09,2.12-1.03s-.68,1.47-1.51,3.15c-6.12,12.28-9.58,28.4-10.37,48.03-.96,24.7,8.25,42.9,26.07,51.49,7.73,3.69,16.25,5.41,27.2,5.41,32.54-.03,54.19-16.18,63.29-47.25,3.83-13.04,5.99-33.63,4.79-45.61-2.63-25.73-17.76-41.71-42.66-44.96-4.58-.62-15.05-.68-19.88-.14-14.85,1.61-28.12,7.63-36.85,16.66-.92.99-1.81,1.78-1.92,1.78-.14,0,.07-.96.41-2.12.75-2.39,1.51-7.01,1.85-11.15l.21-2.81h-38.25c-36.13,0-38.42.03-41.33.65-4.17.89-6.6,1.85-9.58,3.83-2.91,1.95-5.47,4.62-7.63,7.97-1.54,2.39-4.07,7.53-4.89,9.96-.82,2.53-.68.34.72-10.33.75-5.82,1.37-10.95,1.37-11.36v-.75l-39.24.1-39.28.1-2.57.79c-4.93,1.54-8.93,4.14-11.87,7.77-1.47,1.81-3.49,5.58-4.21,7.87-.24.75-.51,1.47-.58,1.64-.07.14-1.03-.96-2.12-2.39-4.07-5.51-10.26-10.5-16.56-13.45-3.39-1.61-9.51-3.49-13.92-4.28-4.35-.82-18.82-1.03-23.78-.34Zm10.78,30.96c10.26,1.64,15.7,11.22,14.92,26.34-1.13,21.66-5.17,35.65-12.35,42.94-4.62,4.69-10.71,6.67-17.28,5.68-7.22-1.09-11.94-5.68-14.06-13.62-2.26-8.35-.34-30.14,3.66-42.12,4.76-14.3,13.58-21.04,25.11-19.23h0Zm288.76.03c7.66,1.23,12.73,6.98,14.4,16.39.92,5.17.27,17.76-1.44,27.88-2.57,15.26-7.8,24.94-15.53,28.84-5.2,2.6-12.45,2.7-17.62.17-4.28-2.09-7.63-7.05-8.93-13.21-1.57-7.49-.24-25.28,2.77-36.98,4.35-16.9,13.72-25.15,26.34-23.09h0Z"/></svg>