<?xml version="1.0" encoding="UTF-8"?><svg id="Ebene_1" xmlns="http://www.w3.org/2000/svg" viewBox="0 0 1018.2 139.72"><defs><style>.cls-1{fill:#2a363b;}</style></defs><path class="cls-1" d="m480.81,2.75c-5.23,1.39-6.14,1.8-6.47,3.04-.15.44-.24,25.1-.24,54.83v54.03l.65,2.51c2.04,7.71,6.82,11.75,15,12.73,6.02.71,12.7-1,13.32-3.4.09-.38-.21-2.48-.65-4.64-1.12-5.31-1.15-5.34-5.31-5.61-1.77-.09-3.54-.32-3.96-.5-.94-.38-1.95-1.45-2.33-2.51-.24-.59-.32-17.3-.32-54.86,0-58.29.09-55.36-1.51-56.48-1.03-.71-2.83-.53-8.18.86h0Z"/><path class="cls-1" d="m775.13,2.75c-2.66.71-5.17,1.48-5.58,1.68-1.48.8-1.51,1.18-1.51,16.77,0,13.67-.03,14.5-.5,14.35-3.04-.92-10.28-1.92-16.71-2.3-14.29-.86-25.51,1.3-32.95,6.35-2.24,1.51-5.73,5.26-7.35,7.88-4.87,7.91-6.88,17.89-6.91,34.25,0,8.65.3,13.43,1.27,18.9,3.04,17.48,11.63,26.13,28.91,29.11,1.86.32,5.34.53,10.42.62,10.98.24,16.62-.38,26.78-2.86,9.57-2.33,12.46-4.78,13.26-11.22.41-3.13.44-110.64.06-112.29-.15-.65-.56-1.48-.94-1.86-.94-1-2.45-.92-8.24.62h0Zm-22.53,44.17c4.34.35,8.09.89,12.43,1.77l3.01.65v64.81l-2.72.62c-7.65,1.71-12.73,2.21-20.85,2.04-7-.18-9.42-.53-12.61-2.01-5.88-2.66-9.15-8.53-10.63-18.99-1.06-7.5-1.06-20.55-.03-28.02,1.39-9.89,4.61-15.71,10.28-18.54,4.61-2.3,11.84-3.1,21.11-2.33h0Z"/><path class="cls-1" d="m150.58,25.01c-4.58,1.51-8.42,7.94-11.16,18.72-3.04,11.99-4.34,25.6-4.05,42.67.18,10.07.56,15.06,1.86,23.09,2.42,15.09,6.94,25.25,12.46,27.96,1.59.77,1.89.83,5.37.8,18.13-.24,40.42-8.27,61.12-22.06,8.18-5.46,15-11.07,20.96-17.24,4.52-4.64,7.23-8.21,9.04-11.84,2.33-4.67,2.13-7.59-.92-13.2-5.61-10.33-18.99-22.71-34.55-32.01-17.63-10.51-36.52-16.36-54.77-16.98-2.51-.09-4.93-.06-5.37.09h0Z"/><path class="cls-1" d="m410.92,33.34c-11.84.8-27.96,4.1-29.79,6.14-1.06,1.15-1.09,2.21-.18,6.7.94,4.61,1.15,5.17,2.13,5.85,1,.71,2.24.59,8.18-.83,10.28-2.45,16.3-3.37,24.24-3.63,10.39-.32,17.66,1.06,20.55,3.96,1.56,1.56,1.89,3.19,2.1,10.63l.18,6.58h-4.4c-16.21,0-34.84,2.57-42.93,5.91-7.26,3.01-11.96,8.21-13.85,15.41-1.36,5.23-1.56,13.52-.47,18.69,2.27,10.69,9.42,17.45,21.38,20.26,4.43,1.03,9.45,1.45,17.45,1.45s13.05-.41,19.9-1.59c10.1-1.77,15-4.16,17.21-8.36,1.92-3.57,1.89-3.04,1.77-38.03-.06-28.61-.12-31.77-.59-33.42-1.45-5.31-4.72-9.3-9.66-11.69-4.69-2.3-9.74-3.45-17.57-4.05-4.64-.32-10.39-.32-15.65.03h0Zm27.25,64.84l-.09,15.89-3.72.94c-5.29,1.33-9.09,1.86-15.18,2.07-11.46.38-18.1-1.12-22.2-5.02-3.07-2.92-4.4-7.06-4.13-13.05.41-8.5,3.28-11.72,12.61-14,5.49-1.36,13.7-2.16,25.84-2.48,1.48-.06,3.63-.12,4.81-.15l2.13-.06-.06,15.86Z"/><path class="cls-1" d="m550.58,33.22c-9.04.53-18.01,1.86-25.3,3.75-5.4,1.42-7.03,2.3-7.5,4.13-.09.35.27,2.69.74,5.2.83,4.19.97,4.64,1.8,5.37,1.21,1.12,2.01,1.06,8.53-.47,13.43-3.22,24.03-4.31,33.07-3.45,7.47.74,11.1,2.27,12.81,5.49.62,1.09.65,1.68.74,8.3l.12,7.12-7.65.18c-18.1.44-33.37,2.89-40.98,6.55-9.27,4.46-13.43,12.19-13.43,25.13,0,9.54,2.21,15.71,7.5,20.93,3.19,3.16,5.91,4.78,10.63,6.41,5.58,1.89,9.09,2.36,19.02,2.51,9.42.18,13.55-.09,20.88-1.27,12.93-2.13,17.72-4.84,19.72-11.19l.65-2.07v-32.04c0-29.7-.03-32.21-.53-34.28-1.98-8.44-8.18-13.29-19.69-15.29-5.67-1-14.38-1.42-21.11-1h0Zm25.19,64.96l-.09,15.89-3.72.94c-5.29,1.33-9.09,1.86-15.18,2.07-11.34.38-18.45-1.21-22.23-4.93-2.86-2.81-4.19-6.58-4.19-11.96,0-6.88,2.01-10.87,6.64-13.2,2.36-1.21,8.53-2.72,13.29-3.31,3.81-.44,12.61-1,18.31-1.15,1.62-.06,3.93-.12,5.11-.15l2.13-.06-.06,15.86h0Z"/><path class="cls-1" d="m651.27,33.22c-8.83.68-16.15,1.68-22.88,3.1-10.01,2.1-15.27,4.34-17.39,7.41-1.89,2.78-1.8.5-1.8,43.32v38.89l.65.83c1.09,1.42,2.1,1.62,7.47,1.62s6.44-.24,7.38-1.65c.59-.83.59-1.77.74-38.21l.15-37.35,4.13-.94c9.33-2.18,18.45-3.34,25.84-3.34,9.83.03,13.17,1.77,14.97,7.88.47,1.56.53,4.84.68,36.41.15,32.98.18,34.75.68,35.55.94,1.42,2.04,1.65,7.5,1.65s6.53-.27,7.53-2.1c.53-.97.53-2.42.44-36.88-.12-39.03-.03-37.23-1.77-41.99-2.6-7.15-8.27-11.49-17.36-13.35-4.25-.86-11.96-1.27-16.95-.86h0Z"/><path class="cls-1" d="m834.63,33.34c-10.84,1.03-18.72,4.34-24.39,10.19-2.66,2.78-3.75,4.34-5.43,7.77-2.98,6.02-4.34,12.55-4.9,23.92-.38,7.38-.03,17.54.8,23.06,2.86,19.34,12.55,29.14,31.36,31.71,3.87.56,13.7.62,17.48.18,18.22-2.27,28.2-11.07,31.74-27.99,1.86-8.89,2.13-27.25.59-37.65-2.3-15.32-8.92-24.18-21.35-28.67-6.35-2.27-17.21-3.34-25.89-2.51h0Zm12.99,13.85c7.65,1.09,12.34,4.02,14.91,9.27,2.42,4.9,2.95,8.74,3.16,22.44.24,15.94-.5,22.91-3.04,28.17-1.42,2.98-4.19,5.79-6.97,7.12-4.13,1.95-10.19,2.89-16.62,2.57-12.25-.62-18.28-4.72-20.67-14.14-1.18-4.67-1.48-8.89-1.48-20.73s.3-16.06,1.48-20.76c1-3.93,2.27-6.35,4.58-8.65,2.83-2.89,6.7-4.61,11.87-5.26,2.69-.35,10.36-.35,12.79-.03h0Z"/><path class="cls-1" d="m288.59,35.97c-1.48.92-1.83,2.1-1.83,6.2s.35,5.23,1.65,6.11c.8.5,2.33.53,27.93.68l27.11.15-26.9,31.3c-14.79,17.21-27.31,31.89-27.76,32.6l-.86,1.33v5.61c0,5.14.06,5.73.59,6.61,1.18,1.92-.83,1.83,37.06,1.83s35.88.09,37.06-1.83c.5-.86.59-1.48.59-5.05,0-4.46-.24-5.31-1.68-6.29-.8-.53-1.92-.56-27.43-.71l-26.57-.15,27.4-31.89c18.93-22.03,27.52-32.21,27.73-32.92.18-.62.27-3.31.21-6.55l-.09-5.55-.97-.94-.94-.97-35.67-.09c-35.34-.06-35.64-.06-36.61.53h0Z"/></svg>